#!OML:ASF H:\Terrain\Patient Classification 1\Animal1\Tuesday\Animal1.ASF
:FULLY-SPECIFIED
:DEGREES
3133
root 10.175 16.1725 -21.5769 -345.038 3.54324 0.552508
lowerback 7.3432 0.616633 0.291941
upperback -4.34007 0.883778 0.255954
thorax -8.71394 0.42314 -0.0237994
lowerneck -11.9413 5.50342 -1.96046
upperneck -6.91437 7.63915 2.71911
head -0.380622 3.89764 1.40107
rclavicle 1.52567e-014 6.75868e-015
rhumerus -37.4636 44.2157 -116.672
rradius 90.6604
rwrist -1.06038
rhand 64.63 -35.1476
rfingers 7.12502
rthumb 74.9334 -345.703
lclavicle 1.52567e-014 6.75868e-015
lhumerus -10.6065 -29.7942 102.448
lradius 90.5529
lwrist -51.3329
lhand -121.859 -113.767
lfingers 7.12502
lthumb 74.0943 -319.791
rfemur -26.9672 -1.27693 24.1109
rtibia 30.0337
rfoot -50.805 -40.5276
rtoes 53.5517
lfemur -35.311 -17.4186 -10.9108
ltibia 25.757
lfoot -7.12373 12.7904
ltoes -7.21112
3134
root 10.1909 16.179 -21.5836 -344.594 3.40625 0.531116
lowerback 7.32232 0.691301 0.171179
upperback -4.28711 0.977587 0.346673
thorax -8.64782 0.479262 0.126792
lowerneck -11.6708 5.56251 -1.99072
upperneck -7.29039 7.72116 2.42697
head -0.535029 3.93587 1.29794
rclavicle 2.18663e-015 -7.95139e-016
rhumerus -37.4063 43.6456 -116.788
rradius 90.8694
rwrist -2.03867
rhand 47.6189 -25.419
rfingers 7.12502
rthumb 68.3212 -385.866
lclavicle 2.18663e-015 -7.95139e-016
lhumerus -10.7686 -30.6239 102.946
lradius 90.5141
lwrist -51.0427
lhand -122.248 -113.054
lfingers 7.12502
lthumb 73.9639 -317.798
rfemur -27.3952 -1.13691 24.0732
rtibia 29.8783
rfoot -50.5818 -40.5756
rtoes 53.4915
lfemur -35.7176 -17.6849 -10.6479
ltibia 25.5504
lfoot -7.1647 13.2813
ltoes -6.01201
3135
root 10.204 16.1816 -21.5925 -344.4 3.25952 0.285643
lowerback 7.50966 0.77251 0.240304
upperback -4.15502 1.10617 0.494876
thorax -8.61668 0.542753 0.224104
lowerneck -11.5736 5.57865 -1.93264
upperneck -7.39704 7.72957 2.12693
head -0.570297 3.93709 1.18825
rclavicle 9.0944e-015 8.74653e-015
rhumerus -37.4265 42.9652 -116.788
rradius 91.2107
rwrist -2.28264
rhand 45.2354 -22.2649
rfingers 7.12502
rthumb 66.5659 -386.598
lclavicle 9.0944e-015 8.74653e-015
lhumerus -10.9477 -31.0848 103.383
lradius 90.2926
lwrist -51.3275
lhand -121.7 -112.852
lfingers 7.12502
lthumb 74.1454 -319.406
rfemur -27.5506 -0.752349 24.2375
rtibia 29.6961
rfoot -50.9207 -40.3098
rtoes 53.8433
lfemur -35.7875 -17.8959 -10.2209
ltibia 25.2173
lfoot -7.01955 13.699
ltoes -5.6807
3136
root 10.223 16.1895 -21.5942 -344.275 3.20389 0.165864
lowerback 7.62934 0.804575 0.345072
upperback -3.96459 1.16462 0.554644
thorax -8.47989 0.567299 0.219364
lowerneck -11.5431 5.58501 -1.95035
upperneck -7.51204 7.74173 2.06069
head -0.609811 3.94387 1.16718
rclavicle 1.11816e-014 1.98785e-015
rhumerus -37.167 42.4526 -116.661
rradius 91.5914
rwrist -2.24111
rhand 48.9143 -22.6135
rfingers 7.12502
rthumb 69.2254 -380.672
lclavicle 1.11816e-014 1.98785e-015
lhumerus -11.4291 -31.2629 103.794
lradius 89.9998
lwrist -52.1223
lhand -121.141 -113.396
lfingers 7.12502
lthumb 74.3135 -321.837
rfemur -27.6102 -0.611738 24.2604
rtibia 29.5786
rfoot -51.0798 -40.1831
rtoes 54.0218
lfemur -35.7951 -18.278 -9.95085
ltibia 24.9487
lfoot -6.90083 14.1367
ltoes -6.45259
3137
root 10.2522 16.2112 -21.5677 -344.096 3.15408 0.587339
lowerback 7.23706 0.776445 0.0788354
upperback -3.69918 1.08331 0.428685
thorax -7.9662 0.53926 0.255256
lowerneck -11.3419 5.63766 -1.95122
upperneck -7.82966 7.81709 2.02948
head -0.74279 3.98113 1.14576
rclavicle -7.45443e-016 6.75868e-015
rhumerus -36.8898 41.9721 -116.51
rradius 92.0359
rwrist -1.85839
rhand 48.4249 -20.8619
rfingers 7.12502
rthumb 68.8884 -379.847
lclavicle -7.45443e-016 6.75868e-015
lhumerus -11.8665 -31.373 104.102
lradius 89.8278
lwrist -52.7786
lhand -121.265 -113.653
lfingers 7.12502
lthumb 74.2778 -321.674
rfemur -27.608 -1.19049 23.7436
rtibia 29.5547
rfoot -49.8606 -40.7754
rtoes 53.2388
lfemur -35.5623 -18.7727 -10.4143
ltibia 24.5189
lfoot -6.74556 14.6645
ltoes -8.34774
3138
root 10.2512 16.1982 -21.6208 -343.562 3.00112 0.621692
lowerback 7.75603 0.781656 -0.275536
upperback -3.86378 1.06011 0.514724
thorax -8.45551 0.549715 0.5404
lowerneck -11.2947 5.73417 -1.97325
upperneck -7.75275 7.94517 1.98858
head -0.728338 4.04558 1.13923
rclavicle -1.0138e-014 9.54166e-015
rhumerus -37.096 41.6922 -116.645
rradius 92.3809
rwrist -1.80389
rhand 45.035 -18.2932
rfingers 7.12502
rthumb 66.4135 -382.926
lclavicle -1.0138e-014 9.54166e-015
lhumerus -12.1851 -31.2446 104.409
lradius 89.6413
lwrist -53.0693
lhand -121.876 -113.369
lfingers 7.12502
lthumb 74.089 -319.339
rfemur -28.5298 -0.251434 23.5219
rtibia 29.5747
rfoot -50.468 -41.1345
rtoes 53.4569
lfemur -36.2715 -18.6019 -10.1137
ltibia 24.0639
lfoot -6.26714 14.7835
ltoes -7.43895
3139
root 10.2724 16.2101 -21.6165 -343.449 2.92801 1.15436
lowerback 7.84047 0.724342 -0.769849
upperback -3.72595 0.918275 0.416101
thorax -8.36071 0.504071 0.735126
lowerneck -11.3673 5.79433 -2.02223
upperneck -7.53261 8.02816 2.00346
head -0.651893 4.08888 1.16097
rclavicle -1.35174e-014 -1.98785e-015
rhumerus -37.3588 41.7177 -116.889
rradius 92.5918
rwrist -2.50793
rhand 40.6179 -17.0308
rfingers 7.12502
rthumb 62.9054 -387.35
lclavicle -1.35174e-014 -1.98785e-015
lhumerus -12.3619 -31.1056 104.554
lradius 89.6891
lwrist -53.1629
lhand -121.919 -112.775
lfingers 7.12502
lthumb 74.0747 -318.599
rfemur -28.566 -0.210144 22.7826
rtibia 29.5452
rfoot -50.8601 -40.8919
rtoes 53.8086
lfemur -36.1595 -19.1725 -10.5546
ltibia 23.6525
lfoot -6.44425 15.1102
ltoes -3.45702
3140
root 10.2902 16.2216 -21.6144 -343.359 3.03321 1.12753
lowerback 7.90211 0.662569 -0.688307
upperback -3.59891 0.846916 0.454962
thorax -8.25727 0.465095 0.741067
lowerneck -11.3146 5.79344 -2.00089
upperneck -7.4429 8.02369 2.01995
head -0.631654 4.08607 1.16254
rclavicle 5.1684e-015 -3.18055e-015
rhumerus -37.0805 41.4676 -116.597
rradius 92.5295
rwrist -1.97902
rhand 44.5181 -16.425
rfingers 7.12502
rthumb 66.0175 -381.811
lclavicle 5.1684e-015 -3.18055e-015
lhumerus -12.4616 -31.1784 104.531
lradius 89.8258
lwrist -53.0886
lhand -121.79 -112.425
lfingers 7.12502
lthumb 74.1166 -318.677
rfemur -28.5499 0.00139591 22.6818
rtibia 29.4445
rfoot -51.5373 -40.5313
rtoes 54.2516
lfemur -36.1535 -19.6512 -10.3484
ltibia 23.353
lfoot -6.30325 15.4049
ltoes -2.00934
3141
root 10.3012 16.2262 -21.6205 -343.224 3.14683 0.886062
lowerback 8.03686 0.621819 -0.489636
upperback -3.53559 0.821064 0.544123
thorax -8.26535 0.444193 0.726421
lowerneck -11.38 5.7641 -1.91663
upperneck -7.18308 7.97364 2.09028
head -0.537583 4.05975 1.17751
rclavicle -1.63003e-014 -4.77083e-015
rhumerus -36.9736 41.5917 -116.569
rradius 92.4472
rwrist -2.43461
rhand 43.1933 -16.4062
rfingers 7.12502
rthumb 64.9835 -383.611
lclavicle -1.63003e-014 -4.77083e-015
lhumerus -12.5915 -31.3352 104.463
lradius 89.7956
lwrist -52.6495
lhand -122.407 -112.272
lfingers 7.12502
lthumb 73.908 -316.498
rfemur -28.5963 0.354193 22.8274
rtibia 29.2182
rfoot -51.8588 -40.5806
rtoes 54.3262
lfemur -36.2405 -20.0529 -9.83427
ltibia 22.9634
lfoot -5.7759 15.7907
ltoes -2.91701
3142
root 10.3139 16.2334 -21.6197 -343.232 3.1792 1.07981
lowerback 8.21954 0.57531 -0.689252
upperback -3.39396 0.730744 0.498139
thorax -8.21955 0.408592 0.802799
lowerneck -11.3929 5.73193 -1.82499
upperneck -6.97851 7.9196 2.17369
head -0.469482 4.03128 1.19221
rclavicle -8.94531e-015 -3.18055e-015
rhumerus -36.7501 41.5759 -116.392
rradius 92.3126
rwrist -2.14489
rhand 44.9974 -16.2283
rfingers 7.12502
rthumb 66.3849 -380.917
lclavicle -8.94531e-015 -3.18055e-015
lhumerus -12.5399 -31.3689 104.295
lradius 89.7915
lwrist -52.0999
lhand -122.5 -112.202
lfingers 7.12502
lthumb 73.8749 -316.128
rfemur -28.3843 0.555393 22.4946
rtibia 28.891
rfoot -51.9981 -40.739
rtoes 54.2652
lfemur -36.1489 -20.4249 -9.95958
ltibia 22.7374
lfoot -5.60444 16.0599
ltoes -3.5108
3143
root 10.3294 16.2469 -21.6088 -343.257 3.31117 1.27295
lowerback 8.25086 0.497972 -0.800262
upperback -3.17728 0.61104 0.466284
thorax -8.00277 0.353214 0.850211
lowerneck -11.4794 5.6519 -1.85846
upperneck -6.85155 7.81857 2.27646
head -0.418397 3.98297 1.23352
rclavicle -1.33186e-014 -1.43125e-014
rhumerus -36.5992 41.6739 -116.152
rradius 92.246
rwrist -1.95685
rhand 45.8598 -16.5644
rfingers 7.12502
rthumb 67.0361 -379.939
lclavicle -1.33186e-014 -1.43125e-014
lhumerus -12.3177 -31.4418 103.941
lradius 90.0166
lwrist -51.6299
lhand -121.972 -112.772
lfingers 7.12502
lthumb 74.0574 -318.423
rfemur -28.047 0.674269 22.1658
rtibia 28.5261
rfoot -52.4812 -40.5275
rtoes 54.4665
lfemur -36.0127 -20.6103 -10.2218
ltibia 22.5776
lfoot -5.60939 16.091
ltoes -4.06131
3144
root 10.3396 16.2569 -21.6029 -343.036 3.51215 0.990463
lowerback 8.08263 0.456104 -0.46278
upperback -3.07866 0.599953 0.547963
thorax -7.79576 0.332033 0.749364
lowerneck -11.9192 5.49643 -1.95469
upperneck -6.32981 7.62141 2.50619
head -0.189899 3.89144 1.34467
rclavicle 9.74045e-015 9.14409e-015
rhumerus -36.4132 41.7446 -115.827
rradius 92.1239
rwrist -1.77202
rhand 48.1543 -18.9515
rfingers 7.12502
rthumb 68.6996 -378.436
lclavicle 9.74045e-015 9.14409e-015
lhumerus -12.1229 -31.6878 103.535
lradius 90.1473
lwrist -51.3023
lhand -121.98 -113.787
lfingers 7.12502
lthumb 74.0547 -319.411
rfemur -28.0588 1.01194 22.3687
rtibia 28.1627
rfoot -52.9654 -40.7279
rtoes 54.6163
lfemur -36.2529 -20.7259 -9.74339
ltibia 22.3941
lfoot -5.61314 16.1373
ltoes -3.6179
3145
root 10.3466 16.2622 -21.5997 -342.807 3.47166 0.630999
lowerback 8.00443 0.527394 -0.174381
upperback -3.15468 0.734325 0.628026
thorax -7.8316 0.385908 0.652087
lowerneck -12.0423 5.33931 -1.90847
upperneck -5.66093 7.39507 2.65631
head 0.0448618 3.77981 1.39825
rclavicle -3.37934e-015 1.19271e-015
rhumerus -36.4784 41.678 -115.665
rradius 91.9855
rwrist -1.79869
rhand 36.329 -13.4545
rfingers 7.12502
rthumb 59.2888 -387.96
lclavicle -3.37934e-015 1.19271e-015
lhumerus -12.1969 -31.5174 103.577
lradius 89.842
lwrist -51.4234
lhand -121.952 -114.678
lfingers 7.12502
lthumb 74.0638 -320.393
rfemur -28.1262 1.56201 22.6233
rtibia 27.782
rfoot -53.3761 -41.0041
rtoes 54.686
lfemur -36.5147 -20.8846 -9.10244
ltibia 22.3101
lfoot -5.8069 16.3903
ltoes -1.84921
3146
root 10.3586 16.2666 -21.5951 -342.696 3.29878 0.477415
lowerback 8.05174 0.599952 -0.0854296
upperback -3.24382 0.844881 0.660916
thorax -7.95565 0.436708 0.619739
lowerneck -11.6319 5.21877 -2.03069
upperneck -5.42391 7.24354 2.90103
head 0.0449921 3.70597 1.48252
rclavicle -9.93923e-017 -5.1684e-015
rhumerus -36.6802 41.6598 -115.608
rradius 91.7839
rwrist -2.04919
rhand 36.8372 -13.6978
rfingers 7.12502
rthumb 59.7257 -387.763
lclavicle -9.93923e-017 -5.1684e-015
lhumerus -12.4991 -30.9031 103.849
lradius 89.6299
lwrist -51.8925
lhand -121.63 -115.184
lfingers 7.12502
lthumb 74.1674 -321.972
rfemur -28.0276 2.15622 22.5842
rtibia 27.4241
rfoot -54.2906 -40.3166
rtoes 55.1996
lfemur -36.623 -21.1052 -8.78626
ltibia 22.3272
lfoot -6.0298 16.8174
ltoes -0.941845
3147
root 10.3782 16.2674 -21.5933 -342.534 3.14019 0.57092
lowerback 7.99467 0.61617 -0.130029
upperback -3.24598 0.857322 0.6058
thorax -7.9247 0.443486 0.585391
lowerneck -11.171 5.12881 -2.4371
upperneck -5.54272 7.17827 3.4354
head -0.0982709 3.68232 1.70086
rclavicle -7.85199e-015 8.74653e-015
rhumerus -36.7682 41.6399 -115.493
rradius 91.5674
rwrist -1.90405
rhand 36.5844 -13.6626
rfingers 7.12502
rthumb 59.5086 -387.949
lclavicle -7.85199e-015 8.74653e-015
lhumerus -12.3122 -30.974 103.549
lradius 89.5199
lwrist -52.1097
lhand -121.517 -115.073
lfingers 7.12502
lthumb 74.2025 -322.242
rfemur -28.0727 2.41689 22.3373
rtibia 27.1518
rfoot -54.3449 -40.438
rtoes 55.2585
lfemur -36.7786 -21.3982 -8.76541
ltibia 22.3026
lfoot -5.96831 17.3741
ltoes -1.88147
